<svg width="51" height="37" viewBox="0 0 51 37" fill="none" xmlns="http://www.w3.org/2000/svg">
<path d="M29.3888 29.2917C29.0714 29.2925 28.7577 29.2416 28.4709 29.1429C28.184 29.0442 27.9313 28.9001 27.7313 28.7213L17.4676 19.4713C17.155 19.1954 16.9842 18.8494 16.9842 18.4923C16.9842 18.1352 17.155 17.7892 17.4676 17.5134L28.0926 8.26335C28.4533 7.94852 28.9716 7.75053 29.5335 7.71294C30.0954 7.67536 30.6549 7.80125 31.0888 8.06293C31.5228 8.32462 31.7957 8.70065 31.8475 9.1083C31.8993 9.51596 31.7258 9.92185 31.3651 10.2367L21.8663 18.5L31.0463 26.7634C31.3062 26.9896 31.4712 27.2652 31.522 27.5574C31.5727 27.8496 31.507 28.1463 31.3327 28.4123C31.1583 28.6783 30.8826 28.9024 30.5381 29.0583C30.1936 29.2141 29.7948 29.2951 29.3888 29.2917Z" fill="#231F20"/>
</svg>
