<svg width="26" height="25" viewBox="0 0 26 25" fill="none" xmlns="http://www.w3.org/2000/svg">
<path d="M18.9994 5.10594H6.26945L7.64852 3.78861C7.84828 3.59631 7.9605 3.33551 7.9605 3.06356C7.9605 2.79162 7.84828 2.53081 7.64852 2.33852C7.44876 2.14622 7.17783 2.03819 6.89533 2.03819C6.61283 2.03819 6.3419 2.14622 6.14215 2.33852L2.95966 5.40208C2.86024 5.49702 2.78132 5.60996 2.72746 5.7344C2.6736 5.85884 2.64587 5.99232 2.64587 6.12713C2.64587 6.26194 2.6736 6.39541 2.72746 6.51985C2.78132 6.6443 2.86024 6.75724 2.95966 6.85217L6.14215 9.91574C6.24076 10.0115 6.35809 10.0874 6.48736 10.1393C6.61664 10.1911 6.75529 10.2178 6.89533 10.2178C7.03538 10.2178 7.17403 10.1911 7.3033 10.1393C7.43258 10.0874 7.5499 10.0115 7.64852 9.91574C7.74795 9.82081 7.82687 9.70786 7.88073 9.58342C7.93458 9.45898 7.96231 9.32551 7.96231 9.1907C7.96231 9.05589 7.93458 8.92241 7.88073 8.79797C7.82687 8.67353 7.74795 8.56059 7.64852 8.46565L6.26945 7.14832H18.9994C19.2167 7.14426 19.4327 7.18145 19.6351 7.25778C19.8375 7.33411 20.0223 7.44807 20.179 7.59316C20.3356 7.73825 20.461 7.91163 20.548 8.10339C20.635 8.29514 20.6819 8.50152 20.6861 8.71074V11.2331C20.6861 11.5039 20.7979 11.7637 20.9968 11.9552C21.1957 12.1467 21.4656 12.2543 21.7469 12.2543C22.0283 12.2543 22.2981 12.1467 22.497 11.9552C22.696 11.7637 22.8077 11.5039 22.8077 11.2331V8.71074C22.8036 8.23332 22.7018 7.76137 22.5081 7.32183C22.3145 6.88229 22.0328 6.48377 21.6792 6.14903C21.3255 5.81429 20.9068 5.54989 20.447 5.37091C19.9872 5.19194 19.4953 5.1019 18.9994 5.10594Z" fill="#231F20"/>
<path d="M19.318 14.5928C19.1182 14.4005 18.8473 14.2925 18.5648 14.2925C18.2823 14.2925 18.0114 14.4005 17.8116 14.5928C17.6119 14.7851 17.4996 15.0459 17.4996 15.3178C17.4996 15.5898 17.6119 15.8506 17.8116 16.0429L19.1907 17.3602H6.46077C6.24344 17.3643 6.0274 17.3271 5.82501 17.2508C5.62261 17.1744 5.43782 17.0605 5.28118 16.9154C5.12455 16.7703 4.99914 16.5969 4.91213 16.4052C4.82511 16.2134 4.7782 16.007 4.77406 15.7978V13.2755C4.77406 13.0046 4.66229 12.7449 4.46335 12.5534C4.26441 12.3619 3.99458 12.2543 3.71323 12.2543C3.43188 12.2543 3.16206 12.3619 2.96311 12.5534C2.76417 12.7449 2.6524 13.0046 2.6524 13.2755V15.7978C2.65657 16.2752 2.75838 16.7472 2.95202 17.1867C3.14566 17.6262 3.42735 18.0248 3.78099 18.3595C4.13464 18.6942 4.55331 18.9587 5.01311 19.1376C5.47291 19.3166 5.96483 19.4066 6.46077 19.4026H19.1907L17.8116 20.7199C17.7122 20.8149 17.6333 20.9278 17.5794 21.0523C17.5256 21.1767 17.4978 21.3102 17.4978 21.445C17.4978 21.5798 17.5256 21.7133 17.5794 21.8377C17.6333 21.9621 17.7122 22.0751 17.8116 22.17C17.9102 22.2657 18.0276 22.3417 18.1568 22.3936C18.2861 22.4454 18.4248 22.4721 18.5648 22.4721C18.7049 22.4721 18.8435 22.4454 18.9728 22.3936C19.1021 22.3417 19.2194 22.2657 19.318 22.17L22.5005 19.1065C22.5999 19.0115 22.6788 18.8986 22.7327 18.7741C22.7865 18.6497 22.8143 18.5162 22.8143 18.3814C22.8143 18.2466 22.7865 18.1131 22.7327 17.9887C22.6788 17.8642 22.5999 17.7513 22.5005 17.6564L19.318 14.5928Z" fill="#231F20"/>
</svg>
