<svg width="51" height="37" viewBox="0 0 51 37" fill="none" xmlns="http://www.w3.org/2000/svg">
<path d="M21.2501 29.2917C20.7536 29.2924 20.2724 29.1669 19.8901 28.9371C19.6749 28.8077 19.497 28.6487 19.3667 28.4694C19.2363 28.29 19.156 28.0937 19.1303 27.8918C19.1047 27.6899 19.1342 27.4863 19.2171 27.2926C19.3001 27.099 19.4349 26.9191 19.6138 26.7633L29.1338 18.5L19.9538 10.2213C19.7773 10.0636 19.6455 9.88212 19.566 9.68735C19.4864 9.49257 19.4607 9.28831 19.4903 9.08631C19.52 8.88431 19.6043 8.68855 19.7386 8.51027C19.8728 8.332 20.0543 8.17473 20.2726 8.04751C20.4924 7.90716 20.7499 7.8013 21.0289 7.73657C21.3078 7.67183 21.6022 7.64963 21.8935 7.67134C22.1848 7.69306 22.4668 7.75822 22.7218 7.86275C22.9767 7.96728 23.1991 8.10891 23.3751 8.27876L33.6388 17.5288C33.9514 17.8046 34.1222 18.1506 34.1222 18.5077C34.1222 18.8648 33.9514 19.2108 33.6388 19.4867L23.0138 28.7367C22.8007 28.9232 22.5299 29.0707 22.2234 29.1672C21.917 29.2636 21.5835 29.3062 21.2501 29.2917Z" fill="#231F20"/>
</svg>
