<svg width="32" height="25" viewBox="0 0 32 25" fill="none" xmlns="http://www.w3.org/2000/svg">
<path d="M22.6667 8.16952H21.3334V6.23947C21.3334 5.15612 20.7715 4.11715 19.7713 3.35111C18.7711 2.58507 17.4145 2.15471 16 2.15471C14.5856 2.15471 13.229 2.58507 12.2288 3.35111C11.2286 4.11715 10.6667 5.15612 10.6667 6.23947V8.16952H9.33337C8.27251 8.16952 7.25509 8.49228 6.50495 9.06681C5.7548 9.64134 5.33337 10.4206 5.33337 11.2331V19.4026C5.33337 20.2151 5.7548 20.9943 6.50495 21.5689C7.25509 22.1434 8.27251 22.4662 9.33337 22.4662H22.6667C23.7276 22.4662 24.745 22.1434 25.4951 21.5689C26.2453 20.9943 26.6667 20.2151 26.6667 19.4026V11.2331C26.6667 10.4206 26.2453 9.64134 25.4951 9.06681C24.745 8.49228 23.7276 8.16952 22.6667 8.16952ZM13.3334 6.23947C13.3154 5.68322 13.586 5.14419 14.0858 4.74036C14.5855 4.33653 15.2738 4.10079 16 4.08476C16.7262 4.10079 17.4146 4.33653 17.9143 4.74036C18.4141 5.14419 18.6846 5.68322 18.6667 6.23947V8.16952H13.3334V6.23947ZM24 19.4026C24 19.6734 23.8596 19.9332 23.6095 20.1247C23.3595 20.3162 23.0203 20.4238 22.6667 20.4238H9.33337C8.97975 20.4238 8.64061 20.3162 8.39057 20.1247C8.14052 19.9332 8.00004 19.6734 8.00004 19.4026V11.2331C8.00004 10.9622 8.14052 10.7025 8.39057 10.511C8.64061 10.3195 8.97975 10.2119 9.33337 10.2119H22.6667C23.0203 10.2119 23.3595 10.3195 23.6095 10.511C23.8596 10.7025 24 10.9622 24 11.2331V19.4026Z" fill="#231F20"/>
<path d="M16.0001 12.2543C15.209 12.2543 14.4356 12.4339 13.7778 12.7706C13.12 13.1072 12.6074 13.5857 12.3046 14.1455C12.0019 14.7053 11.9226 15.3212 12.077 15.9155C12.2313 16.5098 12.6123 17.0557 13.1717 17.4841C13.7311 17.9126 14.4438 18.2043 15.2198 18.3225C15.9957 18.4408 16.8 18.3801 17.5309 18.1482C18.2618 17.9163 18.8865 17.5237 19.326 17.0199C19.7655 16.5161 20.0001 15.9238 20.0001 15.3178C20.0001 14.5053 19.5787 13.7261 18.8286 13.1516C18.0784 12.577 17.061 12.2543 16.0001 12.2543ZM16.0001 16.339C15.7364 16.339 15.4786 16.2791 15.2594 16.1669C15.0401 16.0547 14.8692 15.8952 14.7683 15.7086C14.6674 15.522 14.641 15.3167 14.6924 15.1186C14.7439 14.9205 14.8708 14.7386 15.0573 14.5958C15.2438 14.4529 15.4814 14.3557 15.74 14.3163C15.9986 14.2769 16.2667 14.2971 16.5104 14.3744C16.754 14.4517 16.9622 14.5826 17.1088 14.7505C17.2553 14.9184 17.3335 15.1159 17.3335 15.3178C17.3335 15.5887 17.193 15.8484 16.9429 16.0399C16.6929 16.2314 16.3537 16.339 16.0001 16.339Z" fill="#231F20"/>
</svg>
