<svg width="32" height="25" viewBox="0 0 32 25" fill="none" xmlns="http://www.w3.org/2000/svg">
<path d="M28.8 11.4577L22.6666 7.67934V5.10595C22.6993 4.59019 22.4636 4.08556 22.0112 3.7027C21.5588 3.31984 20.9266 3.09 20.2533 3.06357H5.05331C4.38473 3.09518 3.75934 3.32727 3.31261 3.70956C2.86589 4.09184 2.6338 4.59353 2.66664 5.10595V15.3178C2.65426 15.7234 2.79983 16.1225 3.08478 16.4644C3.36974 16.8064 3.78117 17.0755 4.26664 17.2377C4.02108 17.6978 3.92538 18.1967 3.98779 18.6915C4.0502 19.1862 4.26885 19.6619 4.62487 20.0775C4.98089 20.493 5.46358 20.836 6.03131 21.0768C6.59903 21.3177 7.23473 21.4491 7.88356 21.4597C8.53239 21.4704 9.17486 21.3599 9.75553 21.138C10.3362 20.916 10.8376 20.5892 11.2166 20.1856C11.5955 19.7821 11.8406 19.3141 11.9306 18.8218C12.0206 18.3296 11.9529 17.8279 11.7333 17.3602H20.2133C19.994 17.823 19.9236 18.3193 20.0079 18.8074C20.0922 19.2954 20.3288 19.7606 20.6977 20.1637C21.0666 20.5669 21.5569 20.896 22.1271 21.1232C22.6973 21.3504 23.3306 21.469 23.9733 21.469C24.616 21.469 25.2493 21.3504 25.8195 21.1232C26.3897 20.896 26.88 20.5669 27.2489 20.1637C27.6178 19.7606 27.8544 19.2954 27.9387 18.8074C28.0231 18.3193 27.9526 17.823 27.7333 17.3602H28C28.3536 17.3602 28.6927 17.2526 28.9428 17.0611C29.1928 16.8696 29.3333 16.6099 29.3333 16.339V12.2543C29.3292 12.0992 29.2791 11.9469 29.1867 11.8089C29.0943 11.6709 28.962 11.5508 28.8 11.4577ZM26.6666 12.7444V15.3178H22.6666V10.2936L26.6666 12.7444ZM9.33331 18.3814C9.33331 18.5834 9.25511 18.7808 9.1086 18.9488C8.96209 19.1167 8.75385 19.2476 8.51022 19.3249C8.26658 19.4022 7.99849 19.4224 7.73985 19.383C7.48121 19.3436 7.24363 19.2463 7.05716 19.1035C6.87069 18.9607 6.74371 18.7787 6.69226 18.5806C6.64081 18.3825 6.66722 18.1772 6.76813 17.9906C6.86905 17.804 7.03995 17.6445 7.25921 17.5323C7.47848 17.4201 7.73626 17.3602 7.99997 17.3602C8.35359 17.3602 8.69273 17.4678 8.94278 17.6593C9.19283 17.8508 9.33331 18.1106 9.33331 18.3814ZM16 15.3178H5.33331V5.10595H20V15.3178H16ZM25.3333 18.3814C25.3333 18.5834 25.2551 18.7808 25.1086 18.9488C24.9621 19.1167 24.7539 19.2476 24.5102 19.3249C24.2666 19.4022 23.9985 19.4224 23.7399 19.383C23.4812 19.3436 23.2436 19.2463 23.0572 19.1035C22.8707 18.9607 22.7437 18.7787 22.6923 18.5806C22.6408 18.3825 22.6672 18.1772 22.7681 17.9906C22.869 17.804 23.0399 17.6445 23.2592 17.5323C23.4785 17.4201 23.7363 17.3602 24 17.3602C24.3536 17.3602 24.6927 17.4678 24.9428 17.6593C25.1928 17.8508 25.3333 18.1106 25.3333 18.3814Z" fill="#231F20"/>
</svg>
