<svg width="32" height="25" viewBox="0 0 32 25" fill="none" xmlns="http://www.w3.org/2000/svg">
<path d="M28.8799 4.42708C28.6145 4.245 28.2675 4.1526 27.9151 4.17018C27.5626 4.18775 27.2335 4.31387 26.9999 4.52083L24.5066 6.76042L23.6666 6.02083C23.4314 5.81363 23.1005 5.6879 22.7467 5.67129C22.3929 5.65469 22.0451 5.74857 21.7799 5.93229C21.5147 6.11601 21.3537 6.37451 21.3325 6.65093C21.3112 6.92735 21.4314 7.19905 21.6666 7.40625L23.5199 9.03125C23.6461 9.14047 23.8004 9.22757 23.9728 9.28682C24.1451 9.34607 24.3316 9.37612 24.5199 9.375C24.707 9.37334 24.8915 9.34096 25.0615 9.27994C25.2315 9.21892 25.3831 9.13064 25.5066 9.02083L28.9866 5.89583C29.2213 5.68985 29.3418 5.41956 29.3218 5.14423C29.3018 4.8689 29.1429 4.61101 28.8799 4.42708Z" fill="#231F20"/>
<path d="M13.3333 11.4583C14.3882 11.4583 15.4193 11.214 16.2964 10.7561C17.1734 10.2983 17.857 9.64754 18.2607 8.88618C18.6644 8.12483 18.77 7.28705 18.5642 6.47879C18.3584 5.67054 17.8505 4.92811 17.1046 4.34539C16.3587 3.76267 15.4084 3.36583 14.3738 3.20506C13.3392 3.04429 12.2669 3.12681 11.2924 3.44217C10.3178 3.75754 9.48486 4.29159 8.89883 4.97679C8.31279 5.662 8 6.46758 8 7.29167C8 8.39674 8.5619 9.45655 9.5621 10.2379C10.5623 11.0193 11.9188 11.4583 13.3333 11.4583ZM13.3333 5.20834C13.8608 5.20834 14.3763 5.33052 14.8149 5.55944C15.2534 5.78836 15.5952 6.11373 15.797 6.49441C15.9988 6.87509 16.0517 7.29398 15.9488 7.69811C15.8459 8.10223 15.5919 8.47345 15.219 8.76481C14.846 9.05617 14.3709 9.25459 13.8536 9.33497C13.3363 9.41536 12.8001 9.3741 12.3128 9.21642C11.8256 9.05874 11.4091 8.79171 11.1161 8.44911C10.8231 8.1065 10.6667 7.70371 10.6667 7.29167C10.6667 6.73913 10.9476 6.20923 11.4477 5.81853C11.9478 5.42783 12.6261 5.20834 13.3333 5.20834Z" fill="#231F20"/>
<path d="M13.3333 13.5417C10.858 13.5417 8.48401 14.3099 6.73367 15.6774C4.98333 17.0448 4 18.8995 4 20.8333C4 21.1096 4.14048 21.3746 4.39052 21.5699C4.64057 21.7653 4.97971 21.875 5.33333 21.875C5.68696 21.875 6.02609 21.7653 6.27614 21.5699C6.52619 21.3746 6.66667 21.1096 6.66667 20.8333C6.66667 19.452 7.36905 18.1272 8.61929 17.1505C9.86953 16.1737 11.5652 15.625 13.3333 15.625C15.1014 15.625 16.7971 16.1737 18.0474 17.1505C19.2976 18.1272 20 19.452 20 20.8333C20 21.1096 20.1405 21.3746 20.3905 21.5699C20.6406 21.7653 20.9797 21.875 21.3333 21.875C21.687 21.875 22.0261 21.7653 22.2761 21.5699C22.5262 21.3746 22.6667 21.1096 22.6667 20.8333C22.6667 18.8995 21.6833 17.0448 19.933 15.6774C18.1827 14.3099 15.8087 13.5417 13.3333 13.5417Z" fill="#231F20"/>
</svg>
